<?xml version="1.0" encoding="utf-8"?>
<!-- Generator: Adobe Illustrator 16.0.0, SVG Export Plug-In . SVG Version: 6.00 Build 0)  -->
<!DOCTYPE svg PUBLIC "-//W3C//DTD SVG 1.1//EN" "http://www.w3.org/Graphics/SVG/1.1/DTD/svg11.dtd">
<svg version="1.1" id="Layer_1" xmlns="http://www.w3.org/2000/svg" xmlns:xlink="http://www.w3.org/1999/xlink" x="0px" y="0px"
	 width="100%" height="100%" viewBox="0 0 498.076 104.631" enable-background="new 0 0 498.076 104.631"
	 xml:space="preserve">
<g>
	<path d="M33.943,63.682v-3.271c12.923-2.802,26.313-11.055,26.313-28.337c0-15.259-9.654-25.379-26.625-25.379h-6.54v86.882
		l13.079,7.629v1.868H0v-1.868l11.366-7.629V9.498L0,1.868V0h38.925c22.109,0,37.368,11.055,37.368,29.583
		C76.293,51.848,56.052,62.592,33.943,63.682z" />
	<path d="M82.364,42.973v-2.024c0.467-0.156,12.768-4.671,24.601-7.629v14.792c9.498-11.055,14.636-14.636,17.594-14.636
		c2.803,0,7.318,1.401,9.031,1.868l-4.516,15.103c-2.18-1.09-5.449-2.491-8.252-2.491s-8.252,0.934-13.857,5.138v41.26l14.013,6.852
		v1.868H82.052v-1.868L92.64,94.51V48.111L82.364,42.973z"/>
	<path d="M153.207,62.747c-0.156,1.09-0.156,2.181-0.156,3.271c0,17.282,10.899,27.247,24.756,27.247
		c8.563,0,14.947-2.023,18.996-3.736l0.934,1.868c-3.114,4.048-13.234,13.235-26.469,13.235c-17.127,0-32.075-11.99-32.075-34.41
		c0-21.487,16.66-36.279,30.984-36.279c10.899,0,22.888,7.629,27.403,28.337v0.467H153.207z M154.141,56.519H181.7
		c-1.868-11.677-8.875-15.258-12.923-15.258C163.794,41.261,156.943,46.554,154.141,56.519z"/>
	<path d="M232.301,45.464c4.982-5.605,12.145-11.522,21.175-11.522c11.055,0,17.595,6.695,19.774,12.301
		c4.671-5.138,12.456-12.301,22.265-12.301c13.546,0,20.708,10.588,20.708,16.349V94.51l10.433,6.695v1.868h-35.188v-1.868
		l10.276-6.695v-38.77c0-4.671-4.204-11.21-13.079-11.21c-6.851,0-12.301,4.359-14.324,6.54v43.44l10.12,6.695v1.868h-34.877v-1.868
		l10.276-6.695v-38.77c0-4.671-4.359-11.21-13.079-11.21c-7.317,0-12.456,4.671-14.479,6.695V94.51l10.432,6.695v1.868h-35.344
		v-1.868l10.588-6.695V48.111L207.7,42.973v-2.024c0.467-0.156,12.923-4.671,24.601-7.629V45.464z"/>
	<path d="M335.684,103.074v-1.868l10.587-6.695V48.111l-10.276-5.138v-2.024c0.623-0.156,12.924-4.671,24.602-7.629v61.19
		l10.432,6.695v1.868H335.684z M352.5,0.778c4.826,0,9.187,3.581,9.187,9.031c0,5.138-4.049,9.031-9.187,9.031
		c-5.139,0-9.03-3.893-9.03-9.031C343.469,4.359,347.672,0.778,352.5,0.778z"/>
	<path d="M392.356,62.747c-0.155,1.09-0.155,2.181-0.155,3.271c0,17.282,10.899,27.247,24.757,27.247
		c8.563,0,14.947-2.023,18.995-3.736l0.935,1.868c-3.114,4.048-13.235,13.235-26.47,13.235c-17.127,0-32.074-11.99-32.074-34.41
		c0-21.487,16.66-36.279,30.984-36.279c10.899,0,22.888,7.629,27.403,28.337v0.467H392.356z M393.291,56.519h27.56
		c-1.869-11.677-8.875-15.258-12.924-15.258C402.944,41.261,396.093,46.554,393.291,56.519z"/>
	<path d="M446.85,42.973v-2.024c0.468-0.156,12.768-4.671,24.602-7.629v14.792c9.497-11.055,14.636-14.636,17.594-14.636
		c2.803,0,7.318,1.401,9.03,1.868l-4.515,15.103c-2.18-1.09-5.45-2.491-8.252-2.491c-2.803,0-8.253,0.934-13.857,5.138v41.26
		l14.013,6.852v1.868H446.54v-1.868l10.587-6.695V48.111L446.85,42.973z"/>
</g>
</svg>
